<svg width="129" height="20" viewBox="0 0 129 20" fill="none" xmlns="http://www.w3.org/2000/svg">
<path fill-rule="evenodd" clip-rule="evenodd" d="M2 18.6154C1.69231 18.6974 1.53846 18.9026 1.53846 19.2308C1.53846 19.4769 1.61026 19.641 1.75385 19.7231C2.04103 19.9077 3.50769 20 6.15385 20C8.53333 20 9.91795 19.9487 10.3077 19.8462C10.6154 19.7641 10.7692 19.559 10.7692 19.2308C10.7692 18.9846 10.6974 18.8205 10.5538 18.7385C10.2667 18.5538 8.8 18.4615 6.15385 18.4615C3.77436 18.4615 2.38974 18.5128 2 18.6154ZM9.23077 16.1538C9.23077 16.482 9.32308 16.6974 9.50769 16.8C9.71282 16.882 10.1333 16.9231 10.7692 16.9231C11.4051 16.9231 11.8154 16.882 12 16.8C12.2051 16.6974 12.3077 16.482 12.3077 16.1538C12.3077 15.8256 12.2051 15.6205 12 15.5385C11.8154 15.4359 11.4051 15.3846 10.7692 15.3846C10.1333 15.3846 9.71282 15.4359 9.50769 15.5385C9.32308 15.6205 9.23077 15.8256 9.23077 16.1538ZM0 16.1538C0 16.482 0.0923077 16.6974 0.276923 16.8C0.482051 16.882 0.902564 16.9231 1.53846 16.9231C2.17436 16.9231 2.58461 16.882 2.76923 16.8C2.97436 16.6974 3.07692 16.482 3.07692 16.1538C3.07692 15.8256 2.97436 15.6205 2.76923 15.5385C2.58461 15.4359 2.17436 15.3846 1.53846 15.3846C0.902564 15.3846 0.482051 15.4359 0.276923 15.5385C0.0923077 15.6205 0 15.8256 0 16.1538ZM9.23077 13.0769C9.23077 13.4051 9.32308 13.6205 9.50769 13.7231C9.71282 13.8051 10.1333 13.8462 10.7692 13.8462C11.4051 13.8462 11.8154 13.8051 12 13.7231C12.2051 13.6205 12.3077 13.4051 12.3077 13.0769C12.3077 12.7487 12.2051 12.5436 12 12.4615C11.8154 12.359 11.4051 12.3077 10.7692 12.3077C10.1333 12.3077 9.71282 12.359 9.50769 12.4615C9.32308 12.5436 9.23077 12.7487 9.23077 13.0769ZM0 13.0769C0 13.4051 0.0923077 13.6205 0.276923 13.7231C0.482051 13.8051 0.902564 13.8462 1.53846 13.8462C2.17436 13.8462 2.58461 13.8051 2.76923 13.7231C2.97436 13.6205 3.07692 13.4051 3.07692 13.0769C3.07692 12.7487 2.97436 12.5436 2.76923 12.4615C2.58461 12.359 2.17436 12.3077 1.53846 12.3077C0.902564 12.3077 0.482051 12.359 0.276923 12.4615C0.0923077 12.5436 0 12.7487 0 13.0769ZM9.23077 10C9.23077 10.3282 9.32308 10.5436 9.50769 10.6462C9.71282 10.7282 10.1333 10.7692 10.7692 10.7692C11.4051 10.7692 11.8154 10.7282 12 10.6462C12.2051 10.5436 12.3077 10.3282 12.3077 10C12.3077 9.67179 12.2051 9.46667 12 9.38461C11.8154 9.28205 11.4051 9.23077 10.7692 9.23077C10.1333 9.23077 9.71282 9.28205 9.50769 9.38461C9.32308 9.46667 9.23077 9.67179 9.23077 10ZM0 10C0 10.3282 0.0923077 10.5436 0.276923 10.6462C0.482051 10.7282 0.902564 10.7692 1.53846 10.7692C2.17436 10.7692 2.58461 10.7282 2.76923 10.6462C2.97436 10.5436 3.07692 10.3282 3.07692 10C3.07692 9.67179 2.97436 9.46667 2.76923 9.38461C2.58461 9.28205 2.17436 9.23077 1.53846 9.23077C0.902564 9.23077 0.482051 9.28205 0.276923 9.38461C0.0923077 9.46667 0 9.67179 0 10ZM9.23077 6.92308C9.23077 7.25128 9.32308 7.46667 9.50769 7.56923C9.71282 7.65128 10.1333 7.69231 10.7692 7.69231C11.4051 7.69231 11.8154 7.65128 12 7.56923C12.2051 7.46667 12.3077 7.25128 12.3077 6.92308C12.3077 6.59487 12.2051 6.38974 12 6.30769C11.8154 6.20513 11.4051 6.15385 10.7692 6.15385C10.1333 6.15385 9.71282 6.20513 9.50769 6.30769C9.32308 6.38974 9.23077 6.59487 9.23077 6.92308ZM0 6.92308C0 7.25128 0.0923077 7.46667 0.276923 7.56923C0.482051 7.65128 0.902564 7.69231 1.53846 7.69231C2.17436 7.69231 2.58461 7.65128 2.76923 7.56923C2.97436 7.46667 3.07692 7.25128 3.07692 6.92308C3.07692 6.59487 2.97436 6.38974 2.76923 6.30769C2.58461 6.20513 2.17436 6.15385 1.53846 6.15385C0.902564 6.15385 0.482051 6.20513 0.276923 6.30769C0.0923077 6.38974 0 6.59487 0 6.92308ZM9.23077 3.84615C9.23077 4.17436 9.32308 4.38974 9.50769 4.49231C9.71282 4.57436 10.1333 4.61538 10.7692 4.61538C11.4051 4.61538 11.8154 4.57436 12 4.49231C12.2051 4.38974 12.3077 4.17436 12.3077 3.84615C12.3077 3.51795 12.2051 3.31282 12 3.23077C11.8154 3.12821 11.4051 3.07692 10.7692 3.07692C10.1333 3.07692 9.71282 3.12821 9.50769 3.23077C9.32308 3.31282 9.23077 3.51795 9.23077 3.84615ZM0 3.84615C0 4.17436 0.0923077 4.38974 0.276923 4.49231C0.482051 4.57436 0.902564 4.61538 1.53846 4.61538C2.17436 4.61538 2.58461 4.57436 2.76923 4.49231C2.97436 4.38974 3.07692 4.17436 3.07692 3.84615C3.07692 3.51795 2.97436 3.31282 2.76923 3.23077C2.58461 3.12821 2.17436 3.07692 1.53846 3.07692C0.902564 3.07692 0.482051 3.12821 0.276923 3.23077C0.0923077 3.31282 0 3.51795 0 3.84615ZM2 0.153846C1.69231 0.235897 1.53846 0.441026 1.53846 0.769232C1.53846 1.01538 1.61026 1.17949 1.75385 1.26154C2.04103 1.44615 3.50769 1.53846 6.15385 1.53846C8.53333 1.53846 9.91795 1.48718 10.3077 1.38462C10.6154 1.30256 10.7692 1.09744 10.7692 0.769232C10.7692 0.523077 10.6974 0.358975 10.5538 0.276923C10.2667 0.0923078 8.8 0 6.15385 0C3.77436 0 2.38974 0.0512818 2 0.153846ZM24.6154 19.2308C24.6154 19.559 24.7077 19.7744 24.8923 19.8769C25.0974 19.959 25.5179 20 26.1538 20C26.7897 20 27.2 19.959 27.3846 19.8769C27.5897 19.7744 27.6923 19.559 27.6923 19.2308C27.6923 18.9026 27.5897 18.6974 27.3846 18.6154C27.2 18.5128 26.7897 18.4615 26.1538 18.4615C25.5179 18.4615 25.0974 18.5128 24.8923 18.6154C24.7077 18.6974 24.6154 18.9026 24.6154 19.2308ZM15.3846 19.2308C15.3846 19.559 15.4769 19.7744 15.6615 19.8769C15.8667 19.959 16.2872 20 16.9231 20C17.559 20 17.9692 19.959 18.1538 19.8769C18.359 19.7744 18.4615 19.559 18.4615 19.2308C18.4615 18.9026 18.359 18.6974 18.1538 18.6154C17.9692 18.5128 17.559 18.4615 16.9231 18.4615C16.2872 18.4615 15.8667 18.5128 15.6615 18.6154C15.4769 18.6974 15.3846 18.9026 15.3846 19.2308ZM21.5385 16.1538C21.5385 16.5026 21.6718 16.7179 21.9385 16.8C22.2051 16.882 22.841 16.9231 23.8461 16.9231C24.8513 16.9231 25.4872 16.882 25.7538 16.8C26.0205 16.7179 26.1538 16.5026 26.1538 16.1538C26.1538 15.8051 26.0205 15.5897 25.7538 15.5077C25.4872 15.4256 24.8513 15.3846 23.8461 15.3846C22.841 15.3846 22.2051 15.4256 21.9385 15.5077C21.6718 15.5897 21.5385 15.8051 21.5385 16.1538ZM15.3846 16.1538C15.3846 16.482 15.4769 16.6974 15.6615 16.8C15.8667 16.882 16.2872 16.9231 16.9231 16.9231C17.559 16.9231 17.9692 16.882 18.1538 16.8C18.359 16.6974 18.4615 16.482 18.4615 16.1538C18.4615 15.8256 18.359 15.6205 18.1538 15.5385C17.9692 15.4359 17.559 15.3846 16.9231 15.3846C16.2872 15.3846 15.8667 15.4359 15.6615 15.5385C15.4769 15.6205 15.3846 15.8256 15.3846 16.1538ZM15.3846 13.0769C15.3846 13.2615 15.4051 13.4051 15.4462 13.5077C15.5077 13.5897 15.682 13.6615 15.9692 13.7231C16.2769 13.7846 16.6564 13.8256 17.1077 13.8462H19.2308H21.3538C21.8051 13.8256 22.1744 13.7846 22.4615 13.7231C22.7692 13.6615 22.9436 13.5897 22.9846 13.5077C23.0462 13.4051 23.0769 13.2615 23.0769 13.0769C23.0769 12.8923 23.0462 12.759 22.9846 12.6769C22.9436 12.5744 22.7692 12.4923 22.4615 12.4308C22.1744 12.3692 21.8051 12.3385 21.3538 12.3385C20.9026 12.3179 20.1949 12.3077 19.2308 12.3077C18.2667 12.3077 17.559 12.3179 17.1077 12.3385C16.6564 12.3385 16.2769 12.3692 15.9692 12.4308C15.682 12.4923 15.5077 12.5744 15.4462 12.6769C15.4051 12.759 15.3846 12.8923 15.3846 13.0769ZM15.3846 10C15.3846 10.3487 15.5179 10.5641 15.7846 10.6462C16.0513 10.7282 16.6872 10.7692 17.6923 10.7692C18.6974 10.7692 19.3333 10.7282 19.6 10.6462C19.8667 10.5641 20 10.3487 20 10C20 9.65128 19.8667 9.4359 19.6 9.35385C19.3333 9.27179 18.6974 9.23077 17.6923 9.23077C16.6872 9.23077 16.0513 9.27179 15.7846 9.35385C15.5179 9.4359 15.3846 9.65128 15.3846 10ZM15.3846 6.92308C15.3846 7.10769 15.4051 7.25128 15.4462 7.35385C15.5077 7.4359 15.682 7.50769 15.9692 7.56923C16.2769 7.63077 16.6564 7.67179 17.1077 7.69231H19.2308H21.3538C21.8051 7.67179 22.1744 7.63077 22.4615 7.56923C22.7692 7.50769 22.9436 7.4359 22.9846 7.35385C23.0462 7.25128 23.0769 7.10769 23.0769 6.92308C23.0769 6.73846 23.0462 6.60513 22.9846 6.52308C22.9436 6.42051 22.7692 6.33846 22.4615 6.27692C22.1744 6.21538 21.8051 6.18462 21.3538 6.18462C20.9026 6.1641 20.1949 6.15385 19.2308 6.15385C18.2667 6.15385 17.559 6.1641 17.1077 6.18462C16.6564 6.18462 16.2769 6.21538 15.9692 6.27692C15.682 6.33846 15.5077 6.42051 15.4462 6.52308C15.4051 6.60513 15.3846 6.73846 15.3846 6.92308ZM21.5385 3.84615C21.5385 4.19487 21.6718 4.41026 21.9385 4.49231C22.2051 4.57436 22.841 4.61538 23.8461 4.61538C24.8513 4.61538 25.4872 4.57436 25.7538 4.49231C26.0205 4.41026 26.1538 4.19487 26.1538 3.84615C26.1538 3.49744 26.0205 3.28205 25.7538 3.2C25.4872 3.11795 24.8513 3.07692 23.8461 3.07692C22.841 3.07692 22.2051 3.11795 21.9385 3.2C21.6718 3.28205 21.5385 3.49744 21.5385 3.84615ZM15.3846 3.84615C15.3846 4.17436 15.4769 4.38974 15.6615 4.49231C15.8667 4.57436 16.2872 4.61538 16.9231 4.61538C17.559 4.61538 17.9692 4.57436 18.1538 4.49231C18.359 4.38974 18.4615 4.17436 18.4615 3.84615C18.4615 3.51795 18.359 3.31282 18.1538 3.23077C17.9692 3.12821 17.559 3.07692 16.9231 3.07692C16.2872 3.07692 15.8667 3.12821 15.6615 3.23077C15.4769 3.31282 15.3846 3.51795 15.3846 3.84615ZM24.6154 0.769232C24.6154 1.09744 24.7077 1.31282 24.8923 1.41538C25.0974 1.49744 25.5179 1.53846 26.1538 1.53846C26.7897 1.53846 27.2 1.49744 27.3846 1.41538C27.5897 1.31282 27.6923 1.09744 27.6923 0.769232C27.6923 0.441026 27.5897 0.235897 27.3846 0.153846C27.2 0.0512818 26.7897 0 26.1538 0C25.5179 0 25.0974 0.0512818 24.8923 0.153846C24.7077 0.235897 24.6154 0.441026 24.6154 0.769232ZM15.3846 0.769232C15.3846 1.09744 15.4769 1.31282 15.6615 1.41538C15.8667 1.49744 16.2872 1.53846 16.9231 1.53846C17.559 1.53846 17.9692 1.49744 18.1538 1.41538C18.359 1.31282 18.4615 1.09744 18.4615 0.769232C18.4615 0.441026 18.359 0.235897 18.1538 0.153846C17.9692 0.0512818 17.559 0 16.9231 0C16.2872 0 15.8667 0.0512818 15.6615 0.153846C15.4769 0.235897 15.3846 0.441026 15.3846 0.769232ZM39.3817 18.6154C39.074 18.6974 38.9201 18.9026 38.9201 19.2308C38.9201 19.4769 38.9919 19.641 39.1355 19.7231C39.4227 19.9077 40.8894 20 43.5355 20C45.915 20 47.2996 19.9487 47.6894 19.8462C47.9971 19.7641 48.1509 19.559 48.1509 19.2308C48.1509 18.9846 48.0791 18.8205 47.9355 18.7385C47.6483 18.5538 46.1817 18.4615 43.5355 18.4615C41.156 18.4615 39.7714 18.5128 39.3817 18.6154ZM46.6124 16.1538C46.6124 16.482 46.7048 16.6974 46.8894 16.8C47.0945 16.882 47.515 16.9231 48.1509 16.9231C48.7868 16.9231 49.1971 16.882 49.3817 16.8C49.5868 16.6974 49.6894 16.482 49.6894 16.1538C49.6894 15.8256 49.5868 15.6205 49.3817 15.5385C49.1971 15.4359 48.7868 15.3846 48.1509 15.3846C47.515 15.3846 47.0945 15.4359 46.8894 15.5385C46.7048 15.6205 46.6124 15.8256 46.6124 16.1538ZM40.4586 16.1538C40.4586 16.482 40.5509 16.6974 40.7355 16.8C40.9406 16.882 41.3612 16.9231 41.9971 16.9231C42.633 16.9231 43.0432 16.882 43.2278 16.8C43.433 16.6974 43.5355 16.482 43.5355 16.1538C43.5355 15.8256 43.433 15.6205 43.2278 15.5385C43.0432 15.4359 42.633 15.3846 41.9971 15.3846C41.3612 15.3846 40.9406 15.4359 40.7355 15.5385C40.5509 15.6205 40.4586 15.8256 40.4586 16.1538ZM48.1509 13.0769C48.1509 13.4051 48.2432 13.6205 48.4278 13.7231C48.633 13.8051 49.0535 13.8462 49.6894 13.8462C50.3253 13.8462 50.7355 13.8051 50.9201 13.7231C51.1253 13.6205 51.2278 13.4051 51.2278 13.0769C51.2278 12.7487 51.1253 12.5436 50.9201 12.4615C50.7355 12.359 50.3253 12.3077 49.6894 12.3077C49.0535 12.3077 48.633 12.359 48.4278 12.4615C48.2432 12.5436 48.1509 12.7487 48.1509 13.0769ZM40.4586 13.0769C40.4586 13.4051 40.5509 13.6205 40.7355 13.7231C40.9406 13.8051 41.3612 13.8462 41.9971 13.8462C42.633 13.8462 43.0432 13.8051 43.2278 13.7231C43.433 13.6205 43.5355 13.4051 43.5355 13.0769C43.5355 12.7487 43.433 12.5436 43.2278 12.4615C43.0432 12.359 42.633 12.3077 41.9971 12.3077C41.3612 12.3077 40.9406 12.359 40.7355 12.4615C40.5509 12.5436 40.4586 12.7487 40.4586 13.0769ZM48.1509 10C48.1509 10.3282 48.2432 10.5436 48.4278 10.6462C48.633 10.7282 49.0535 10.7692 49.6894 10.7692C50.3253 10.7692 50.7355 10.7282 50.9201 10.6462C51.1253 10.5436 51.2278 10.3282 51.2278 10C51.2278 9.67179 51.1253 9.46667 50.9201 9.38461C50.7355 9.28205 50.3253 9.23077 49.6894 9.23077C49.0535 9.23077 48.633 9.28205 48.4278 9.38461C48.2432 9.46667 48.1509 9.67179 48.1509 10ZM40.4586 10C40.4586 10.3282 40.5509 10.5436 40.7355 10.6462C40.9406 10.7282 41.3612 10.7692 41.9971 10.7692C42.633 10.7692 43.0432 10.7282 43.2278 10.6462C43.433 10.5436 43.5355 10.3282 43.5355 10C43.5355 9.67179 43.433 9.46667 43.2278 9.38461C43.0432 9.28205 42.633 9.23077 41.9971 9.23077C41.3612 9.23077 40.9406 9.28205 40.7355 9.38461C40.5509 9.46667 40.4586 9.67179 40.4586 10ZM48.1509 6.92308C48.1509 7.25128 48.2432 7.46667 48.4278 7.56923C48.633 7.65128 49.0535 7.69231 49.6894 7.69231C50.3253 7.69231 50.7355 7.65128 50.9201 7.56923C51.1253 7.46667 51.2278 7.25128 51.2278 6.92308C51.2278 6.59487 51.1253 6.38974 50.9201 6.30769C50.7355 6.20513 50.3253 6.15385 49.6894 6.15385C49.0535 6.15385 48.633 6.20513 48.4278 6.30769C48.2432 6.38974 48.1509 6.59487 48.1509 6.92308ZM40.4586 6.92308C40.4586 7.25128 40.5509 7.46667 40.7355 7.56923C40.9406 7.65128 41.3612 7.69231 41.9971 7.69231C42.633 7.69231 43.0432 7.65128 43.2278 7.56923C43.433 7.46667 43.5355 7.25128 43.5355 6.92308C43.5355 6.59487 43.433 6.38974 43.2278 6.30769C43.0432 6.20513 42.633 6.15385 41.9971 6.15385C41.3612 6.15385 40.9406 6.20513 40.7355 6.30769C40.5509 6.38974 40.4586 6.59487 40.4586 6.92308ZM46.6124 3.84615C46.6124 4.17436 46.7048 4.38974 46.8894 4.49231C47.0945 4.57436 47.515 4.61538 48.1509 4.61538C48.7868 4.61538 49.1971 4.57436 49.3817 4.49231C49.5868 4.38974 49.6894 4.17436 49.6894 3.84615C49.6894 3.51795 49.5868 3.31282 49.3817 3.23077C49.1971 3.12821 48.7868 3.07692 48.1509 3.07692C47.515 3.07692 47.0945 3.12821 46.8894 3.23077C46.7048 3.31282 46.6124 3.51795 46.6124 3.84615ZM40.4586 3.84615C40.4586 4.17436 40.5509 4.38974 40.7355 4.49231C40.9406 4.57436 41.3612 4.61538 41.9971 4.61538C42.633 4.61538 43.0432 4.57436 43.2278 4.49231C43.433 4.38974 43.5355 4.17436 43.5355 3.84615C43.5355 3.51795 43.433 3.31282 43.2278 3.23077C43.0432 3.12821 42.633 3.07692 41.9971 3.07692C41.3612 3.07692 40.9406 3.12821 40.7355 3.23077C40.5509 3.31282 40.4586 3.51795 40.4586 3.84615ZM39.3817 0.153846C39.074 0.235897 38.9201 0.441026 38.9201 0.769232C38.9201 1.01538 38.9919 1.17949 39.1355 1.26154C39.4227 1.44615 40.8894 1.53846 43.5355 1.53846C45.915 1.53846 47.2996 1.48718 47.6894 1.38462C47.9971 1.30256 48.1509 1.09744 48.1509 0.769232C48.1509 0.523077 48.0791 0.358975 47.9355 0.276923C47.6483 0.0923078 46.1817 0 43.5355 0C41.156 0 39.7714 0.0512818 39.3817 0.153846ZM54.7663 18.6462C54.4586 18.7282 54.3047 18.9231 54.3047 19.2308C54.3047 19.4769 54.3971 19.641 54.5817 19.7231C54.9509 19.9077 56.9099 20 60.4586 20C63.7612 20 65.6586 19.9385 66.1509 19.8154C66.4586 19.7333 66.6124 19.5385 66.6124 19.2308C66.6124 18.9846 66.5201 18.8205 66.3355 18.7385C65.9663 18.5538 64.0073 18.4615 60.4586 18.4615C57.156 18.4615 55.2586 18.5231 54.7663 18.6462ZM54.3047 16.1538C54.3047 16.482 54.3971 16.6974 54.5817 16.8C54.7868 16.882 55.2073 16.9231 55.8432 16.9231C56.4791 16.9231 56.8894 16.882 57.074 16.8C57.2791 16.6974 57.3817 16.482 57.3817 16.1538C57.3817 15.8256 57.2791 15.6205 57.074 15.5385C56.8894 15.4359 56.4791 15.3846 55.8432 15.3846C55.2073 15.3846 54.7868 15.4359 54.5817 15.5385C54.3971 15.6205 54.3047 15.8256 54.3047 16.1538ZM54.3047 13.0769C54.3047 13.4051 54.3971 13.6205 54.5817 13.7231C54.7868 13.8051 55.2073 13.8462 55.8432 13.8462C56.4791 13.8462 56.8894 13.8051 57.074 13.7231C57.2791 13.6205 57.3817 13.4051 57.3817 13.0769C57.3817 12.7487 57.2791 12.5436 57.074 12.4615C56.8894 12.359 56.4791 12.3077 55.8432 12.3077C55.2073 12.3077 54.7868 12.359 54.5817 12.4615C54.3971 12.5436 54.3047 12.7487 54.3047 13.0769ZM54.7663 9.38461C54.4586 9.46667 54.3047 9.67179 54.3047 10C54.3047 10.2462 54.3765 10.4103 54.5201 10.4923C54.8073 10.6769 56.274 10.7692 58.9201 10.7692C61.2996 10.7692 62.6842 10.7179 63.074 10.6154C63.3817 10.5333 63.5355 10.3282 63.5355 10C63.5355 9.75384 63.4637 9.58974 63.3201 9.50769C63.033 9.32308 61.5663 9.23077 58.9201 9.23077C56.5406 9.23077 55.156 9.28205 54.7663 9.38461ZM54.3047 6.92308C54.3047 7.25128 54.3971 7.46667 54.5817 7.56923C54.7868 7.65128 55.2073 7.69231 55.8432 7.69231C56.4791 7.69231 56.8894 7.65128 57.074 7.56923C57.2791 7.46667 57.3817 7.25128 57.3817 6.92308C57.3817 6.59487 57.2791 6.38974 57.074 6.30769C56.8894 6.20513 56.4791 6.15385 55.8432 6.15385C55.2073 6.15385 54.7868 6.20513 54.5817 6.30769C54.3971 6.38974 54.3047 6.59487 54.3047 6.92308ZM54.3047 3.84615C54.3047 4.17436 54.3971 4.38974 54.5817 4.49231C54.7868 4.57436 55.2073 4.61538 55.8432 4.61538C56.4791 4.61538 56.8894 4.57436 57.074 4.49231C57.2791 4.38974 57.3817 4.17436 57.3817 3.84615C57.3817 3.51795 57.2791 3.31282 57.074 3.23077C56.8894 3.12821 56.4791 3.07692 55.8432 3.07692C55.2073 3.07692 54.7868 3.12821 54.5817 3.23077C54.3971 3.31282 54.3047 3.51795 54.3047 3.84615ZM54.7663 0.184617C54.4586 0.266667 54.3047 0.461538 54.3047 0.769232C54.3047 1.01538 54.3971 1.17949 54.5817 1.26154C54.9509 1.44615 56.9099 1.53846 60.4586 1.53846C63.7612 1.53846 65.6586 1.47692 66.1509 1.35385C66.4586 1.2718 66.6124 1.07692 66.6124 0.769232C66.6124 0.523077 66.5201 0.358975 66.3355 0.276923C65.9663 0.0923078 64.0073 0 60.4586 0C57.156 0 55.2586 0.0615389 54.7663 0.184617ZM69.9663 19.8769C69.7817 19.7744 69.6894 19.559 69.6894 19.2308C69.6894 18.9026 69.7817 18.6974 69.9663 18.6154C70.1714 18.5128 70.5919 18.4615 71.2278 18.4615C71.8637 18.4615 72.274 18.5128 72.4586 18.6154C72.6637 18.6974 72.7663 18.9026 72.7663 19.2308C72.7663 19.559 72.6637 19.7744 72.4586 19.8769C72.274 19.959 71.8637 20 71.2278 20C70.5919 20 70.1714 19.959 69.9663 19.8769ZM69.9663 16.8C69.7817 16.6974 69.6894 16.482 69.6894 16.1538C69.6894 15.8256 69.7817 15.6205 69.9663 15.5385C70.1714 15.4359 70.5919 15.3846 71.2278 15.3846C71.8637 15.3846 72.274 15.4359 72.4586 15.5385C72.6637 15.6205 72.7663 15.8256 72.7663 16.1538C72.7663 16.482 72.6637 16.6974 72.4586 16.8C72.274 16.882 71.8637 16.9231 71.2278 16.9231C70.5919 16.9231 70.1714 16.882 69.9663 16.8ZM69.9663 13.7231C69.7817 13.6205 69.6894 13.4051 69.6894 13.0769C69.6894 12.7487 69.7817 12.5436 69.9663 12.4615C70.1714 12.359 70.5919 12.3077 71.2278 12.3077C71.8637 12.3077 72.274 12.359 72.4586 12.4615C72.6637 12.5436 72.7663 12.7487 72.7663 13.0769C72.7663 13.4051 72.6637 13.6205 72.4586 13.7231C72.274 13.8051 71.8637 13.8462 71.2278 13.8462C70.5919 13.8462 70.1714 13.8051 69.9663 13.7231ZM69.6894 10C69.6894 9.69231 69.8432 9.49744 70.1509 9.41538C70.6022 9.29231 72.2432 9.23077 75.074 9.23077C78.1714 9.23077 79.8842 9.32308 80.2124 9.50769C80.3765 9.58974 80.4586 9.75384 80.4586 10C80.4586 10.3077 80.3047 10.5026 79.9971 10.5846C79.5458 10.7077 77.9047 10.7692 75.074 10.7692C71.9765 10.7692 70.2637 10.6769 69.9355 10.4923C69.7714 10.4103 69.6894 10.2462 69.6894 10ZM79.1971 7.56923C79.0124 7.46667 78.9201 7.25128 78.9201 6.92308C78.9201 6.59487 79.0124 6.38974 79.1971 6.30769C79.4022 6.20513 79.8227 6.15385 80.4586 6.15385C81.0945 6.15385 81.5047 6.20513 81.6894 6.30769C81.8945 6.38974 81.9971 6.59487 81.9971 6.92308C81.9971 7.25128 81.8945 7.46667 81.6894 7.56923C81.5047 7.65128 81.0945 7.69231 80.4586 7.69231C79.8227 7.69231 79.4022 7.65128 79.1971 7.56923ZM69.9663 7.56923C69.7817 7.46667 69.6894 7.25128 69.6894 6.92308C69.6894 6.59487 69.7817 6.38974 69.9663 6.30769C70.1714 6.20513 70.5919 6.15385 71.2278 6.15385C71.8637 6.15385 72.274 6.20513 72.4586 6.30769C72.6637 6.38974 72.7663 6.59487 72.7663 6.92308C72.7663 7.25128 72.6637 7.46667 72.4586 7.56923C72.274 7.65128 71.8637 7.69231 71.2278 7.69231C70.5919 7.69231 70.1714 7.65128 69.9663 7.56923ZM79.1971 4.49231C79.0124 4.38974 78.9201 4.17436 78.9201 3.84615C78.9201 3.51795 79.0124 3.31282 79.1971 3.23077C79.4022 3.12821 79.8227 3.07692 80.4586 3.07692C81.0945 3.07692 81.5047 3.12821 81.6894 3.23077C81.8945 3.31282 81.9971 3.51795 81.9971 3.84615C81.9971 4.17436 81.8945 4.38974 81.6894 4.49231C81.5047 4.57436 81.0945 4.61538 80.4586 4.61538C79.8227 4.61538 79.4022 4.57436 79.1971 4.49231ZM69.9663 4.49231C69.7817 4.38974 69.6894 4.17436 69.6894 3.84615C69.6894 3.51795 69.7817 3.31282 69.9663 3.23077C70.1714 3.12821 70.5919 3.07692 71.2278 3.07692C71.8637 3.07692 72.274 3.12821 72.4586 3.23077C72.6637 3.31282 72.7663 3.51795 72.7663 3.84615C72.7663 4.17436 72.6637 4.38974 72.4586 4.49231C72.274 4.57436 71.8637 4.61538 71.2278 4.61538C70.5919 4.61538 70.1714 4.57436 69.9663 4.49231ZM69.6894 0.769232C69.6894 0.461538 69.8432 0.266667 70.1509 0.184617C70.6022 0.0615389 72.2432 0 75.074 0C78.1714 0 79.8842 0.0923078 80.2124 0.276923C80.3765 0.358975 80.4586 0.523077 80.4586 0.769232C80.4586 1.07692 80.3047 1.2718 79.9971 1.35385C79.5458 1.47692 77.9047 1.53846 75.074 1.53846C71.9765 1.53846 70.2637 1.44615 69.9355 1.26154C69.7714 1.17949 69.6894 1.01538 69.6894 0.769232ZM85.5355 18.6462C85.2278 18.7282 85.074 18.9231 85.074 19.2308C85.074 19.4769 85.1663 19.641 85.3509 19.7231C85.7201 19.9077 87.6791 20 91.2278 20C94.5304 20 96.4278 19.9385 96.9201 19.8154C97.2278 19.7333 97.3817 19.5385 97.3817 19.2308C97.3817 18.9846 97.2894 18.8205 97.1047 18.7385C96.7355 18.5538 94.7765 18.4615 91.2278 18.4615C87.9253 18.4615 86.0278 18.5231 85.5355 18.6462ZM85.074 16.1538C85.074 16.482 85.1663 16.6974 85.3509 16.8C85.556 16.882 85.9765 16.9231 86.6124 16.9231C87.2483 16.9231 87.6586 16.882 87.8432 16.8C88.0483 16.6974 88.1509 16.482 88.1509 16.1538C88.1509 15.8256 88.0483 15.6205 87.8432 15.5385C87.6586 15.4359 87.2483 15.3846 86.6124 15.3846C85.9765 15.3846 85.556 15.4359 85.3509 15.5385C85.1663 15.6205 85.074 15.8256 85.074 16.1538ZM85.074 13.0769C85.074 13.4051 85.1663 13.6205 85.3509 13.7231C85.556 13.8051 85.9765 13.8462 86.6124 13.8462C87.2483 13.8462 87.6586 13.8051 87.8432 13.7231C88.0483 13.6205 88.1509 13.4051 88.1509 13.0769C88.1509 12.7487 88.0483 12.5436 87.8432 12.4615C87.6586 12.359 87.2483 12.3077 86.6124 12.3077C85.9765 12.3077 85.556 12.359 85.3509 12.4615C85.1663 12.5436 85.074 12.7487 85.074 13.0769ZM85.074 10C85.074 10.3282 85.1663 10.5436 85.3509 10.6462C85.556 10.7282 85.9765 10.7692 86.6124 10.7692C87.2483 10.7692 87.6586 10.7282 87.8432 10.6462C88.0483 10.5436 88.1509 10.3282 88.1509 10C88.1509 9.67179 88.0483 9.46667 87.8432 9.38461C87.6586 9.28205 87.2483 9.23077 86.6124 9.23077C85.9765 9.23077 85.556 9.28205 85.3509 9.38461C85.1663 9.46667 85.074 9.67179 85.074 10ZM85.074 6.92308C85.074 7.25128 85.1663 7.46667 85.3509 7.56923C85.556 7.65128 85.9765 7.69231 86.6124 7.69231C87.2483 7.69231 87.6586 7.65128 87.8432 7.56923C88.0483 7.46667 88.1509 7.25128 88.1509 6.92308C88.1509 6.59487 88.0483 6.38974 87.8432 6.30769C87.6586 6.20513 87.2483 6.15385 86.6124 6.15385C85.9765 6.15385 85.556 6.20513 85.3509 6.30769C85.1663 6.38974 85.074 6.59487 85.074 6.92308ZM85.074 3.84615C85.074 4.17436 85.1663 4.38974 85.3509 4.49231C85.556 4.57436 85.9765 4.61538 86.6124 4.61538C87.2483 4.61538 87.6586 4.57436 87.8432 4.49231C88.0483 4.38974 88.1509 4.17436 88.1509 3.84615C88.1509 3.51795 88.0483 3.31282 87.8432 3.23077C87.6586 3.12821 87.2483 3.07692 86.6124 3.07692C85.9765 3.07692 85.556 3.12821 85.3509 3.23077C85.1663 3.31282 85.074 3.51795 85.074 3.84615ZM85.074 0.769232C85.074 1.09744 85.1663 1.31282 85.3509 1.41538C85.556 1.49744 85.9765 1.53846 86.6124 1.53846C87.2483 1.53846 87.6586 1.49744 87.8432 1.41538C88.0483 1.31282 88.1509 1.09744 88.1509 0.769232C88.1509 0.441026 88.0483 0.235897 87.8432 0.153846C87.6586 0.0512818 87.2483 0 86.6124 0C85.9765 0 85.556 0.0512818 85.3509 0.153846C85.1663 0.235897 85.074 0.441026 85.074 0.769232ZM101.997 19.2308C101.997 18.9026 102.151 18.6974 102.459 18.6154C102.848 18.5128 104.233 18.4615 106.612 18.4615C109.259 18.4615 110.725 18.5538 111.012 18.7385C111.156 18.8205 111.228 18.9846 111.228 19.2308C111.228 19.559 111.074 19.7641 110.766 19.8462C110.377 19.9487 108.992 20 106.612 20C103.966 20 102.5 19.9077 102.212 19.7231C102.069 19.641 101.997 19.4769 101.997 19.2308ZM109.966 16.8C109.782 16.6974 109.689 16.482 109.689 16.1538C109.689 15.8256 109.782 15.6205 109.966 15.5385C110.171 15.4359 110.592 15.3846 111.228 15.3846C111.864 15.3846 112.274 15.4359 112.459 15.5385C112.664 15.6205 112.766 15.8256 112.766 16.1538C112.766 16.482 112.664 16.6974 112.459 16.8C112.274 16.882 111.864 16.9231 111.228 16.9231C110.592 16.9231 110.171 16.882 109.966 16.8ZM100.736 16.8C100.551 16.6974 100.459 16.482 100.459 16.1538C100.459 15.8256 100.551 15.6205 100.736 15.5385C100.941 15.4359 101.361 15.3846 101.997 15.3846C102.633 15.3846 103.043 15.4359 103.228 15.5385C103.433 15.6205 103.536 15.8256 103.536 16.1538C103.536 16.482 103.433 16.6974 103.228 16.8C103.043 16.882 102.633 16.9231 101.997 16.9231C101.361 16.9231 100.941 16.882 100.736 16.8ZM109.966 13.7231C109.782 13.6205 109.689 13.4051 109.689 13.0769C109.689 12.7487 109.782 12.5436 109.966 12.4615C110.171 12.359 110.592 12.3077 111.228 12.3077C111.864 12.3077 112.274 12.359 112.459 12.4615C112.664 12.5436 112.766 12.7487 112.766 13.0769C112.766 13.4051 112.664 13.6205 112.459 13.7231C112.274 13.8051 111.864 13.8462 111.228 13.8462C110.592 13.8462 110.171 13.8051 109.966 13.7231ZM100.736 13.7231C100.551 13.6205 100.459 13.4051 100.459 13.0769C100.459 12.7487 100.551 12.5436 100.736 12.4615C100.941 12.359 101.361 12.3077 101.997 12.3077C102.633 12.3077 103.043 12.359 103.228 12.4615C103.433 12.5436 103.536 12.7487 103.536 13.0769C103.536 13.4051 103.433 13.6205 103.228 13.7231C103.043 13.8051 102.633 13.8462 101.997 13.8462C101.361 13.8462 100.941 13.8051 100.736 13.7231ZM109.966 10.6462C109.782 10.5436 109.689 10.3282 109.689 10C109.689 9.67179 109.782 9.46667 109.966 9.38461C110.171 9.28205 110.592 9.23077 111.228 9.23077C111.864 9.23077 112.274 9.28205 112.459 9.38461C112.664 9.46667 112.766 9.67179 112.766 10C112.766 10.3282 112.664 10.5436 112.459 10.6462C112.274 10.7282 111.864 10.7692 111.228 10.7692C110.592 10.7692 110.171 10.7282 109.966 10.6462ZM100.736 10.6462C100.551 10.5436 100.459 10.3282 100.459 10C100.459 9.67179 100.551 9.46667 100.736 9.38461C100.941 9.28205 101.361 9.23077 101.997 9.23077C102.633 9.23077 103.043 9.28205 103.228 9.38461C103.433 9.46667 103.536 9.67179 103.536 10C103.536 10.3282 103.433 10.5436 103.228 10.6462C103.043 10.7282 102.633 10.7692 101.997 10.7692C101.361 10.7692 100.941 10.7282 100.736 10.6462ZM109.966 7.56923C109.782 7.46667 109.689 7.25128 109.689 6.92308C109.689 6.59487 109.782 6.38974 109.966 6.30769C110.171 6.20513 110.592 6.15385 111.228 6.15385C111.864 6.15385 112.274 6.20513 112.459 6.30769C112.664 6.38974 112.766 6.59487 112.766 6.92308C112.766 7.25128 112.664 7.46667 112.459 7.56923C112.274 7.65128 111.864 7.69231 111.228 7.69231C110.592 7.69231 110.171 7.65128 109.966 7.56923ZM100.736 7.56923C100.551 7.46667 100.459 7.25128 100.459 6.92308C100.459 6.59487 100.551 6.38974 100.736 6.30769C100.941 6.20513 101.361 6.15385 101.997 6.15385C102.633 6.15385 103.043 6.20513 103.228 6.30769C103.433 6.38974 103.536 6.59487 103.536 6.92308C103.536 7.25128 103.433 7.46667 103.228 7.56923C103.043 7.65128 102.633 7.69231 101.997 7.69231C101.361 7.69231 100.941 7.65128 100.736 7.56923ZM109.966 4.49231C109.782 4.38974 109.689 4.17436 109.689 3.84615C109.689 3.51795 109.782 3.31282 109.966 3.23077C110.171 3.12821 110.592 3.07692 111.228 3.07692C111.864 3.07692 112.274 3.12821 112.459 3.23077C112.664 3.31282 112.766 3.51795 112.766 3.84615C112.766 4.17436 112.664 4.38974 112.459 4.49231C112.274 4.57436 111.864 4.61538 111.228 4.61538C110.592 4.61538 110.171 4.57436 109.966 4.49231ZM100.736 4.49231C100.551 4.38974 100.459 4.17436 100.459 3.84615C100.459 3.51795 100.551 3.31282 100.736 3.23077C100.941 3.12821 101.361 3.07692 101.997 3.07692C102.633 3.07692 103.043 3.12821 103.228 3.23077C103.433 3.31282 103.536 3.51795 103.536 3.84615C103.536 4.17436 103.433 4.38974 103.228 4.49231C103.043 4.57436 102.633 4.61538 101.997 4.61538C101.361 4.61538 100.941 4.57436 100.736 4.49231ZM101.997 0.769232C101.997 0.441026 102.151 0.235897 102.459 0.153846C102.848 0.0512818 104.233 0 106.612 0C109.259 0 110.725 0.0923078 111.012 0.276923C111.156 0.358975 111.228 0.523077 111.228 0.769232C111.228 1.09744 111.074 1.30256 110.766 1.38462C110.377 1.48718 108.992 1.53846 106.612 1.53846C103.966 1.53846 102.5 1.44615 102.212 1.26154C102.069 1.17949 101.997 1.01538 101.997 0.769232ZM120.459 19.2308C120.459 19.559 120.551 19.7744 120.736 19.8769C120.941 19.959 121.361 20 121.997 20C122.633 20 123.043 19.959 123.228 19.8769C123.433 19.7744 123.536 19.559 123.536 19.2308C123.536 18.9026 123.433 18.6974 123.228 18.6154C123.043 18.5128 122.633 18.4615 121.997 18.4615C121.361 18.4615 120.941 18.5128 120.736 18.6154C120.551 18.6974 120.459 18.9026 120.459 19.2308ZM120.459 16.1538C120.459 16.482 120.551 16.6974 120.736 16.8C120.941 16.882 121.361 16.9231 121.997 16.9231C122.633 16.9231 123.043 16.882 123.228 16.8C123.433 16.6974 123.536 16.482 123.536 16.1538C123.536 15.8256 123.433 15.6205 123.228 15.5385C123.043 15.4359 122.633 15.3846 121.997 15.3846C121.361 15.3846 120.941 15.4359 120.736 15.5385C120.551 15.6205 120.459 15.8256 120.459 16.1538ZM120.459 13.0769C120.459 13.4051 120.551 13.6205 120.736 13.7231C120.941 13.8051 121.361 13.8462 121.997 13.8462C122.633 13.8462 123.043 13.8051 123.228 13.7231C123.433 13.6205 123.536 13.4051 123.536 13.0769C123.536 12.7487 123.433 12.5436 123.228 12.4615C123.043 12.359 122.633 12.3077 121.997 12.3077C121.361 12.3077 120.941 12.359 120.736 12.4615C120.551 12.5436 120.459 12.7487 120.459 13.0769ZM120.459 10C120.459 10.3282 120.551 10.5436 120.736 10.6462C120.941 10.7282 121.361 10.7692 121.997 10.7692C122.633 10.7692 123.043 10.7282 123.228 10.6462C123.433 10.5436 123.536 10.3282 123.536 10C123.536 9.67179 123.433 9.46667 123.228 9.38461C123.043 9.28205 122.633 9.23077 121.997 9.23077C121.361 9.23077 120.941 9.28205 120.736 9.38461C120.551 9.46667 120.459 9.67179 120.459 10ZM118.92 6.92308C118.92 7.27179 119.084 7.48718 119.412 7.56923C119.741 7.65128 120.602 7.69231 121.997 7.69231C123.392 7.69231 124.253 7.65128 124.582 7.56923C124.91 7.48718 125.074 7.27179 125.074 6.92308C125.074 6.57436 124.91 6.35897 124.582 6.27692C124.253 6.19487 123.392 6.15385 121.997 6.15385C120.602 6.15385 119.741 6.19487 119.412 6.27692C119.084 6.35897 118.92 6.57436 118.92 6.92308ZM123.536 3.84615C123.536 4.17436 123.628 4.38974 123.812 4.49231C124.018 4.57436 124.438 4.61538 125.074 4.61538C125.71 4.61538 126.12 4.57436 126.305 4.49231C126.51 4.38974 126.612 4.17436 126.612 3.84615C126.612 3.51795 126.51 3.31282 126.305 3.23077C126.12 3.12821 125.71 3.07692 125.074 3.07692C124.438 3.07692 124.018 3.12821 123.812 3.23077C123.628 3.31282 123.536 3.51795 123.536 3.84615ZM117.382 3.84615C117.382 4.17436 117.474 4.38974 117.659 4.49231C117.864 4.57436 118.284 4.61538 118.92 4.61538C119.556 4.61538 119.966 4.57436 120.151 4.49231C120.356 4.38974 120.459 4.17436 120.459 3.84615C120.459 3.51795 120.356 3.31282 120.151 3.23077C119.966 3.12821 119.556 3.07692 118.92 3.07692C118.284 3.07692 117.864 3.12821 117.659 3.23077C117.474 3.31282 117.382 3.51795 117.382 3.84615ZM125.074 0.769232C125.074 1.09744 125.166 1.31282 125.351 1.41538C125.556 1.49744 125.977 1.53846 126.612 1.53846C127.248 1.53846 127.659 1.49744 127.843 1.41538C128.048 1.31282 128.151 1.09744 128.151 0.769232C128.151 0.441026 128.048 0.235897 127.843 0.153846C127.659 0.0512818 127.248 0 126.612 0C125.977 0 125.556 0.0512818 125.351 0.153846C125.166 0.235897 125.074 0.441026 125.074 0.769232ZM115.843 0.769232C115.843 1.09744 115.936 1.31282 116.12 1.41538C116.325 1.49744 116.746 1.53846 117.382 1.53846C118.018 1.53846 118.428 1.49744 118.612 1.41538C118.818 1.31282 118.92 1.09744 118.92 0.769232C118.92 0.441026 118.818 0.235897 118.612 0.153846C118.428 0.0512818 118.018 0 117.382 0C116.746 0 116.325 0.0512818 116.12 0.153846C115.936 0.235897 115.843 0.441026 115.843 0.769232Z" fill="black"/>
</svg>
